<mxfile host="app.diagrams.net" modified="2022-03-19T23:22:07.668Z" agent="5.0 (X11)" etag="ycBdbL1k5DllV_cINtrS" version="17.1.3" type="github">
  <diagram id="CfjZYNGTgtmRlJN2sAuv" name="Page-1">
    <mxGraphModel dx="1422" dy="760" grid="1" gridSize="10" guides="1" tooltips="1" connect="1" arrows="1" fold="1" page="1" pageScale="1" pageWidth="850" pageHeight="1100" math="0" shadow="0">
      <root>
        <mxCell id="0" />
        <mxCell id="1" parent="0" />
        <mxCell id="kzFh1b562wHyoPBNth0h-1" value="&lt;font style=&quot;font-size: 28px&quot;&gt;21&lt;/font&gt;" style="ellipse;whiteSpace=wrap;html=1;aspect=fixed;" vertex="1" parent="1">
          <mxGeometry x="385" y="40" width="80" height="80" as="geometry" />
        </mxCell>
        <mxCell id="kzFh1b562wHyoPBNth0h-4" value="&lt;br&gt;&lt;font style=&quot;font-size: 28px&quot;&gt;42&lt;/font&gt;" style="ellipse;whiteSpace=wrap;html=1;aspect=fixed;" vertex="1" parent="1">
          <mxGeometry x="520" y="160" width="80" height="80" as="geometry" />
        </mxCell>
        <mxCell id="kzFh1b562wHyoPBNth0h-5" value="&lt;font style=&quot;font-size: 28px&quot;&gt;11&lt;/font&gt;" style="ellipse;whiteSpace=wrap;html=1;aspect=fixed;" vertex="1" parent="1">
          <mxGeometry x="240" y="160" width="80" height="80" as="geometry" />
        </mxCell>
        <mxCell id="kzFh1b562wHyoPBNth0h-7" value="" style="endArrow=none;html=1;rounded=0;fontSize=28;entryX=0;entryY=0;entryDx=0;entryDy=0;exitX=1;exitY=1;exitDx=0;exitDy=0;strokeWidth=3;" edge="1" parent="1" source="kzFh1b562wHyoPBNth0h-1" target="kzFh1b562wHyoPBNth0h-4">
          <mxGeometry width="50" height="50" relative="1" as="geometry">
            <mxPoint x="480" y="150" as="sourcePoint" />
            <mxPoint x="530" y="100" as="targetPoint" />
          </mxGeometry>
        </mxCell>
        <mxCell id="kzFh1b562wHyoPBNth0h-9" value="" style="endArrow=none;html=1;rounded=0;fontSize=28;entryX=0;entryY=1;entryDx=0;entryDy=0;exitX=1;exitY=0;exitDx=0;exitDy=0;strokeWidth=3;" edge="1" parent="1" source="kzFh1b562wHyoPBNth0h-5" target="kzFh1b562wHyoPBNth0h-1">
          <mxGeometry width="50" height="50" relative="1" as="geometry">
            <mxPoint x="320.00427124746216" y="130.00427124746213" as="sourcePoint" />
            <mxPoint x="398.4357287525379" y="193.43572875253787" as="targetPoint" />
          </mxGeometry>
        </mxCell>
        <mxCell id="kzFh1b562wHyoPBNth0h-10" value="&lt;font style=&quot;font-size: 28px&quot;&gt;69&lt;/font&gt;" style="ellipse;whiteSpace=wrap;html=1;aspect=fixed;" vertex="1" parent="1">
          <mxGeometry x="580" y="280" width="80" height="80" as="geometry" />
        </mxCell>
        <mxCell id="kzFh1b562wHyoPBNth0h-11" value="&lt;font style=&quot;font-size: 28px&quot;&gt;38&lt;/font&gt;" style="ellipse;whiteSpace=wrap;html=1;aspect=fixed;" vertex="1" parent="1">
          <mxGeometry x="460" y="280" width="80" height="80" as="geometry" />
        </mxCell>
        <mxCell id="kzFh1b562wHyoPBNth0h-12" value="" style="endArrow=none;html=1;rounded=0;fontSize=28;entryX=0.5;entryY=0;entryDx=0;entryDy=0;exitX=1;exitY=1;exitDx=0;exitDy=0;strokeWidth=3;" edge="1" parent="1" target="kzFh1b562wHyoPBNth0h-10" source="kzFh1b562wHyoPBNth0h-4">
          <mxGeometry width="50" height="50" relative="1" as="geometry">
            <mxPoint x="593.2842712474621" y="230.00427124746213" as="sourcePoint" />
            <mxPoint x="670" y="221.72" as="targetPoint" />
          </mxGeometry>
        </mxCell>
        <mxCell id="kzFh1b562wHyoPBNth0h-13" value="" style="endArrow=none;html=1;rounded=0;fontSize=28;entryX=0;entryY=1;entryDx=0;entryDy=0;exitX=0.5;exitY=0;exitDx=0;exitDy=0;strokeWidth=3;" edge="1" parent="1" source="kzFh1b562wHyoPBNth0h-11" target="kzFh1b562wHyoPBNth0h-4">
          <mxGeometry width="50" height="50" relative="1" as="geometry">
            <mxPoint x="460.00427124746216" y="251.72427124746213" as="sourcePoint" />
            <mxPoint x="536.7157287525379" y="230.00427124746213" as="targetPoint" />
          </mxGeometry>
        </mxCell>
        <mxCell id="kzFh1b562wHyoPBNth0h-15" value="&lt;font style=&quot;font-size: 28px&quot;&gt;8&lt;/font&gt;" style="ellipse;whiteSpace=wrap;html=1;aspect=fixed;" vertex="1" parent="1">
          <mxGeometry x="180" y="280" width="80" height="80" as="geometry" />
        </mxCell>
        <mxCell id="kzFh1b562wHyoPBNth0h-17" value="" style="endArrow=none;html=1;rounded=0;fontSize=28;entryX=0;entryY=1;entryDx=0;entryDy=0;exitX=0.5;exitY=0;exitDx=0;exitDy=0;strokeWidth=3;" edge="1" parent="1" source="kzFh1b562wHyoPBNth0h-15">
          <mxGeometry width="50" height="50" relative="1" as="geometry">
            <mxPoint x="180.00427124746216" y="251.72427124746213" as="sourcePoint" />
            <mxPoint x="251.71572875253787" y="228.28427124746213" as="targetPoint" />
          </mxGeometry>
        </mxCell>
      </root>
    </mxGraphModel>
  </diagram>
</mxfile>
